External Loads File
version=1
nRows=93
nColumns=13
Range=5.000000e-03-10 seconds
endheader
time 	forceRightX 	forceRightY 	forceRightZ 	pointRightX 	pointRightY 	pointRightZ 	forceLeftX 	forceLeftY 	forceLeftZ 	pointLeftX 	pointLeftY 	pointLeftZ 		
0.005000 32.401959 112.183457 -0.000000 0.139714 0.378311 -0.142192 -92.645132 163.019869 -0.000000 0.423893 0.257748 -0.370487
0.010000 33.429151 111.510798 -0.000000 0.139640 0.378142 -0.142214 -92.954066 163.087885 -0.000000 0.423974 0.258002 -0.370497
0.015000 34.361168 110.889914 -0.000000 0.139512 0.377973 -0.142190 -93.219968 163.165598 -0.000000 0.424045 0.258203 -0.370512
0.020000 35.145952 110.356666 -0.000000 0.139401 0.377834 -0.142179 -93.374810 163.260677 -0.000000 0.424131 0.258330 -0.370523
0.025000 35.664702 109.966445 -0.000000 0.139343 0.377688 -0.142136 -93.509818 163.305561 -0.000000 0.424301 0.258555 -0.370342
0.030000 35.959307 109.715026 -0.000000 0.139255 0.377524 -0.142183 -93.565480 163.342418 -0.000000 0.424399 0.258749 -0.370323
0.035000 36.064950 109.586334 -0.000000 0.139138 0.377368 -0.142206 -93.583815 163.379568 -0.000000 0.424392 0.258949 -0.370550
0.040000 36.011818 109.555810 -0.000000 0.139038 0.377207 -0.142234 -93.675327 163.397527 -0.000000 0.424567 0.259158 -0.370345
0.045000 35.911957 109.571135 -0.000000 0.138931 0.377035 -0.142227 -93.824898 163.442055 -0.000000 0.424558 0.259384 -0.370562
0.050000 35.795979 109.612732 -0.000000 0.138840 0.376865 -0.142230 -94.079759 163.506001 -0.000000 0.424632 0.259581 -0.370537
0.055000 35.694732 109.666757 -0.000000 0.138766 0.376691 -0.142263 -94.423296 163.594938 -0.000000 0.424715 0.259747 -0.370544
0.060000 35.607263 109.733420 -0.000000 0.138675 0.376513 -0.142259 -94.846406 163.683139 -0.000000 0.424793 0.259930 -0.370543
0.065000 35.556645 109.805697 -0.000000 0.138582 0.376329 -0.142258 -95.279598 163.764738 -0.000000 0.424874 0.260095 -0.370546
0.070000 35.543630 109.878288 -0.000000 0.138511 0.376135 -0.142259 -95.671580 163.821337 -0.000000 0.424957 0.260257 -0.370533
0.075000 35.546941 109.945828 -0.000000 0.138399 0.375912 -0.142270 -96.000483 163.813864 -0.000000 0.425062 0.260428 -0.370524
0.080000 35.621933 109.977007 -0.000000 0.138327 0.375780 -0.142272 -96.149874 163.764481 -0.000000 0.425150 0.260607 -0.370511
0.085000 35.710203 109.979168 -0.000000 0.138233 0.375598 -0.142263 -96.214941 163.600454 -0.000000 0.425235 0.260818 -0.370503
0.090000 35.864952 109.924258 -0.000000 0.138163 0.375421 -0.142285 -96.148513 163.364581 -0.000000 0.425331 0.260992 -0.370490
0.095000 36.063658 109.814189 -0.000000 0.138049 0.375288 -0.142275 -96.001063 163.062070 -0.000000 0.425520 0.261163 -0.370233
0.100000 36.297312 109.657725 -0.000000 0.137952 0.375130 -0.142231 -95.789650 162.732971 -0.000000 0.425609 0.261326 -0.370227
0.105000 36.530391 109.480577 -0.000000 0.137882 0.374962 -0.142236 -95.587782 162.390141 -0.000000 0.425693 0.261502 -0.370219
0.110000 36.769478 109.296114 -0.000000 0.137807 0.374812 -0.142201 -95.423672 162.062973 -0.000000 0.425785 0.261666 -0.370224
0.115000 36.996150 109.123770 -0.000000 0.137725 0.374655 -0.142240 -95.338845 161.754461 -0.000000 0.425865 0.261821 -0.370231
0.120000 37.187522 108.980926 -0.000000 0.137658 0.374494 -0.142243 -95.332438 161.467501 -0.000000 0.425842 0.262010 -0.370508
0.125000 37.322780 108.881587 -0.000000 0.137593 0.374331 -0.142267 -95.384318 161.192954 -0.000000 0.425896 0.262167 -0.370511
0.130000 37.394155 108.831574 -0.000000 0.137530 0.374156 -0.142278 -95.473786 160.918594 -0.000000 0.425975 0.262321 -0.370516
0.135000 37.414703 108.820485 -0.000000 0.137447 0.374009 -0.142269 -95.558168 160.656151 -0.000000 0.426053 0.262463 -0.370506
0.140000 37.278372 108.869170 -0.000000 0.137396 0.373561 -0.142270 -95.778848 160.321209 -0.000000 0.426108 0.262606 -0.370529
0.145000 37.181483 108.894529 -0.000000 0.137323 0.373396 -0.142270 -95.865223 160.091072 -0.000000 0.426179 0.262735 -0.370536
0.150000 37.077589 108.905708 -0.000000 0.137290 0.373285 -0.142279 -95.937706 159.915239 -0.000000 0.426245 0.262874 -0.370558
0.155000 36.976043 108.903284 -0.000000 0.137221 0.373170 -0.142287 -96.042973 159.767268 -0.000000 0.426313 0.263023 -0.370539
0.160000 36.947243 108.878310 -0.000000 0.137173 0.373066 -0.142290 -96.124503 159.650710 -0.000000 0.426378 0.263149 -0.370546
0.165000 36.963635 108.862501 -0.000000 0.137078 0.372845 -0.142250 -96.230461 159.490993 -0.000000 0.426440 0.263284 -0.370538
0.170000 37.090696 108.849039 -0.000000 0.137022 0.372694 -0.142238 -96.226939 159.339832 -0.000000 0.426509 0.263416 -0.370530
0.175000 37.255091 108.860274 -0.000000 0.136974 0.372560 -0.142241 -96.168472 159.166409 -0.000000 0.426580 0.263577 -0.370536
0.180000 37.432653 108.888823 -0.000000 0.136921 0.372445 -0.142237 -96.053084 158.995476 -0.000000 0.426650 0.263689 -0.370514
0.185000 37.554253 108.938495 -0.000000 0.136865 0.372304 -0.142247 -95.966605 158.800092 -0.000000 0.426710 0.263819 -0.370514
0.190000 37.625040 108.984822 -0.000000 0.136801 0.372198 -0.142219 -95.903294 158.595018 -0.000000 0.426775 0.263968 -0.370507
0.195000 37.644185 109.006214 -0.000000 0.136739 0.372064 -0.142180 -95.857994 158.381930 -0.000000 0.426846 0.264070 -0.370486
0.200000 37.608223 108.991852 -0.000000 0.136704 0.371975 -0.142187 -95.800509 158.171011 -0.000000 0.426915 0.264180 -0.370482
0.205000 37.476369 108.954326 -0.000000 0.136664 0.371852 -0.142205 -95.753524 157.944108 -0.000000 0.426978 0.264284 -0.370476
0.210000 37.264369 108.888570 -0.000000 0.136607 0.371753 -0.142229 -95.692189 157.728039 -0.000000 0.427029 0.264383 -0.370481
0.215000 36.965678 108.796429 -0.000000 0.136586 0.371658 -0.142235 -95.653957 157.520050 -0.000000 0.427103 0.264510 -0.370470
0.220000 36.606730 108.675359 -0.000000 0.136550 0.371549 -0.142248 -95.629804 157.331286 -0.000000 0.427169 0.264604 -0.370461
0.225000 36.181499 108.545541 -0.000000 0.136512 0.371437 -0.142257 -95.636524 157.133267 -0.000000 0.427202 0.264742 -0.370474
0.230000 35.728022 108.416856 -0.000000 0.136470 0.371338 -0.142268 -95.612338 156.931095 -0.000000 0.427262 0.264837 -0.370462
0.235000 35.244150 108.306359 -0.000000 0.136430 0.371233 -0.142279 -95.564299 156.690661 -0.000000 0.427302 0.264955 -0.370470
0.240000 34.767263 108.209846 -0.000000 0.136394 0.371119 -0.142296 -95.468651 156.415963 -0.000000 0.427344 0.265060 -0.370479
0.245000 34.331803 108.120639 -0.000000 0.136367 0.371029 -0.142273 -95.337899 156.120107 -0.000000 0.427388 0.265183 -0.370474
0.250000 33.949074 108.039661 -0.000000 0.136338 0.370877 -0.142278 -95.238885 155.808691 -0.000000 0.427422 0.265306 -0.370463
0.255000 33.698347 107.949434 -0.000000 0.136350 0.370782 -0.142299 -95.122297 155.557467 -0.000000 0.427474 0.265380 -0.370450
0.260000 33.535040 107.875089 -0.000000 0.136309 0.370676 -0.142278 -95.071474 155.331070 -0.000000 0.427507 0.265475 -0.370445
0.265000 33.466692 107.826233 -0.000000 0.136275 0.370573 -0.142293 -95.064926 155.127788 -0.000000 0.427536 0.265607 -0.370456
0.270000 33.490223 107.812342 -0.000000 0.136199 0.370412 -0.142273 -95.097615 154.937694 -0.000000 0.427555 0.265710 -0.370456
0.275000 33.615405 107.832230 -0.000000 0.136163 0.370280 -0.142287 -95.156746 154.783441 -0.000000 0.427584 0.265843 -0.370461
0.280000 33.821416 107.886795 -0.000000 0.136102 0.370177 -0.142282 -95.257099 154.680739 -0.000000 0.427616 0.265982 -0.370447
0.285000 34.064435 107.977096 -0.000000 0.136051 0.370044 -0.142283 -95.394869 154.621729 -0.000000 0.427645 0.266107 -0.370466
0.290000 34.320660 108.091304 -0.000000 0.136008 0.369926 -0.142265 -95.507319 154.591135 -0.000000 0.427677 0.266248 -0.370457
0.295000 34.594177 108.204351 -0.000000 0.135950 0.369807 -0.142262 -95.527027 154.574854 -0.000000 0.427714 0.266347 -0.370466
0.300000 34.881388 108.293866 -0.000000 0.135908 0.369671 -0.142242 -95.459219 154.546136 -0.000000 0.427745 0.266422 -0.370453
0.305000 35.186669 108.339490 -0.000000 0.135861 0.369595 -0.142243 -95.316327 154.495857 -0.000000 0.427790 0.266504 -0.370441
0.310000 35.456833 108.346187 -0.000000 0.135809 0.369495 -0.142247 -95.160383 154.380575 -0.000000 0.427830 0.266608 -0.370454
0.315000 35.699228 108.304769 -0.000000 0.135776 0.369411 -0.142249 -94.946438 154.218392 -0.000000 0.427861 0.266690 -0.370470
0.320000 35.881370 108.221568 -0.000000 0.135735 0.369333 -0.142247 -94.713075 153.992184 -0.000000 0.427913 0.266780 -0.370448
0.325000 36.004275 108.095092 -0.000000 0.135718 0.369254 -0.142259 -94.485934 153.714519 -0.000000 0.427959 0.266888 -0.370453
0.330000 36.084089 107.923498 -0.000000 0.135685 0.369169 -0.142271 -94.271825 153.412216 -0.000000 0.428001 0.266967 -0.370466
0.335000 36.091750 107.720314 -0.000000 0.135652 0.369077 -0.142276 -94.113994 153.069588 -0.000000 0.428055 0.267104 -0.370471
0.340000 36.032200 107.483235 -0.000000 0.135604 0.368983 -0.142283 -93.967868 152.696655 -0.000000 0.428112 0.267234 -0.370456
0.345000 35.877465 107.219601 -0.000000 0.135569 0.368879 -0.142292 -93.814661 152.276814 -0.000000 0.428163 0.267354 -0.370459
0.350000 35.589076 106.944055 -0.000000 0.135527 0.368745 -0.142317 -93.667030 151.785363 -0.000000 0.428201 0.267491 -0.370470
0.355000 35.185736 106.654064 -0.000000 0.135490 0.368618 -0.142308 -93.497148 151.231375 -0.000000 0.428276 0.267632 -0.370459
0.360000 34.716378 106.334735 -0.000000 0.135492 0.368468 -0.142315 -93.277221 150.617940 -0.000000 0.428327 0.267766 -0.370432
0.365000 34.219105 105.975751 -0.000000 0.135433 0.368283 -0.142313 -93.010013 149.916961 -0.000000 0.428380 0.267923 -0.370421
0.370000 33.765042 105.565377 -0.000000 0.135392 0.368104 -0.142310 -92.626282 149.141882 -0.000000 0.428422 0.268109 -0.370423
0.375000 33.355857 105.126237 -0.000000 0.135298 0.367877 -0.142267 -92.128617 148.279105 -0.000000 0.428468 0.268305 -0.370433
0.380000 33.006928 104.683310 -0.000000 0.135258 0.367614 -0.142278 -91.501102 147.356985 -0.000000 0.428541 0.268501 -0.370403
0.385000 32.728395 104.260660 -0.000000 0.135188 0.367413 -0.142261 -90.752062 146.412376 -0.000000 0.428609 0.268718 -0.370406
0.390000 32.487323 103.884308 -0.000000 0.135116 0.367163 -0.142245 -89.970717 145.437174 -0.000000 0.428682 0.268959 -0.370410
0.395000 32.335482 103.540623 -0.000000 0.135059 0.366933 -0.142243 -89.132958 144.483948 -0.000000 0.428755 0.269185 -0.370416
0.400000 32.244408 103.232220 -0.000000 0.134992 0.366674 -0.142299 -88.296575 143.533424 -0.000000 0.428844 0.269467 -0.370396
0.405000 32.242334 102.937063 -0.000000 0.134902 0.366412 -0.142320 -87.380926 142.623399 -0.000000 0.428934 0.269703 -0.370379
0.410000 32.234920 102.662887 -0.000000 0.134829 0.366117 -0.142338 -86.428884 141.701758 -0.000000 0.429051 0.270022 -0.370378
0.415000 32.196333 102.387374 -0.000000 0.134726 0.365810 -0.142331 -85.400363 140.776814 -0.000000 0.429159 0.270353 -0.370364
0.420000 32.101289 102.086496 -0.000000 0.134640 0.365488 -0.142321 -84.322256 139.830719 -0.000000 0.429312 0.270697 -0.370344
0.425000 31.986911 101.727636 -0.000000 0.134557 0.365157 -0.142295 -83.209215 138.868315 -0.000000 0.429488 0.270986 -0.370364
0.430000 31.851971 101.308433 -0.000000 0.134404 0.364795 -0.142267 -82.171976 137.860354 -0.000000 0.429665 0.271261 -0.370382
0.435000 31.699832 100.837687 -0.000000 0.134295 0.364440 -0.142303 -81.309048 136.797643 -0.000000 0.429865 0.271634 -0.370368
0.440000 31.566793 100.313696 -0.000000 0.134181 0.364078 -0.142324 -80.620515 135.714296 -0.000000 0.430098 0.271949 -0.370338
0.445000 31.387765 99.759730 -0.000000 0.134041 0.363690 -0.142352 -80.185894 134.578783 -0.000000 0.430361 0.272336 -0.370307
0.450000 31.155266 99.178585 -0.000000 0.133895 0.363286 -0.142364 -79.981445 133.416783 -0.000000 0.430636 0.272771 -0.370302
0.455000 30.885957 98.570793 -0.000000 0.133751 0.362888 -0.142317 -79.955928 132.267772 -0.000000 0.430911 0.273181 -0.370287
0.460000 30.530252 97.964942 -0.000000 0.133670 0.362389 -0.142349 -80.163372 131.096991 -0.000000 0.431206 0.273653 -0.370292
0.465000 30.127921 97.365733 -0.000000 0.133507 0.361823 -0.142348 -80.546410 129.921983 -0.000000 0.431504 0.274137 -0.370277
